<svg width="128" height="24" viewBox="0 0 128 24" fill="none" xmlns="http://www.w3.org/2000/svg">
<path fill-rule="evenodd" clip-rule="evenodd" d="M13.0068 14.6229C12.1701 15.9014 11.9035 17.4439 12.2057 18.89C12.2552 19.1287 12.4736 19.2886 12.716 19.2658C14.0542 19.135 15.2933 18.6411 16.328 17.8781C16.5235 17.7334 16.5793 17.4681 16.4562 17.2573C15.7135 15.9801 14.4833 15.0127 13.0055 14.6229H13.0068ZM24 12C24 5.37283 18.6272 0 12 0C5.37283 0 0 5.37283 0 12C0 18.6272 5.37283 24 12 24C18.6272 24 24 18.6272 24 12ZM15.6691 0.884892C15.6564 0.881083 15.6424 0.876005 15.6297 0.872196C15.6424 0.876005 15.6564 0.881083 15.6691 0.884892ZM10.4943 18.4824C10.4029 17.6064 10.4702 16.7165 10.6961 15.8582C10.7774 15.551 10.8777 15.2476 10.9996 14.9505C11.0554 14.8121 11.0478 14.6712 10.9755 14.5404C10.9031 14.4096 10.7876 14.3271 10.6403 14.303C10.4207 14.2649 10.2048 14.2205 9.99154 14.1697C9.7592 14.1151 9.52687 14.237 9.43927 14.4579C9.41515 14.5201 9.39103 14.5823 9.36818 14.6445C9.14727 15.2476 8.99365 15.8684 8.90732 16.4981C8.8248 17.0973 8.80322 17.7029 8.84257 18.3047C8.854 18.4875 8.96064 18.6386 9.1295 18.711C9.37453 18.8151 9.6259 18.9077 9.88362 18.9852C10.0398 19.0322 10.1972 19.0004 10.3242 18.8963C10.4511 18.7922 10.5108 18.6437 10.4943 18.4812V18.4824ZM7.51714 15.1168C7.61998 14.7105 7.7482 14.3094 7.89928 13.9145C7.98688 13.686 7.88912 13.4308 7.67076 13.3204C7.29369 13.1299 6.9306 12.9166 6.58273 12.683C6.20059 12.4278 5.83623 12.1473 5.49217 11.8464C5.34744 11.7194 5.15193 11.6915 4.97673 11.774C4.80152 11.8565 4.69869 12.0241 4.70504 12.2171C4.75455 13.9209 5.39314 15.4913 6.43292 16.7177C6.55734 16.865 6.74651 16.9209 6.93187 16.865C7.11722 16.8091 7.24418 16.6581 7.26703 16.4664C7.32036 16.0119 7.40415 15.5612 7.51714 15.1155V15.1168ZM6.69065 10.7254C7.17562 11.1354 7.70631 11.4934 8.27254 11.7943C8.33094 11.8261 8.39061 11.8565 8.45028 11.8857C8.66356 11.9924 8.91875 11.9276 9.05332 11.7309C9.17774 11.5506 9.30978 11.3716 9.44689 11.1976C9.53957 11.0808 9.57004 10.9424 9.53703 10.7964C9.50275 10.6517 9.41515 10.54 9.28058 10.4752C8.99111 10.3356 8.71308 10.1782 8.44774 10.0042C7.70631 9.51799 7.06136 8.90097 6.54211 8.18874C6.44562 8.05671 6.30216 7.98688 6.13838 7.99323C5.97461 8.00085 5.8375 8.0821 5.75243 8.22175C5.61405 8.45028 5.48836 8.68642 5.37537 8.93017C5.29793 9.09649 5.31951 9.27931 5.43377 9.42404C5.80703 9.89759 6.22852 10.3331 6.69065 10.7241V10.7254ZM11.4223 11.4236C11.2484 11.5988 11.0821 11.7804 10.9247 11.9657C10.8104 12.1016 10.7799 12.2768 10.8434 12.4418C10.9069 12.6081 11.0466 12.7186 11.223 12.7427C11.4642 12.7757 11.708 12.7998 11.9556 12.8125C12.0038 12.8151 12.0521 12.8189 12.099 12.8214C12.245 12.8328 12.3758 12.7821 12.4774 12.6767C12.5104 12.6424 12.5446 12.6081 12.5777 12.5738C12.7529 12.3986 12.9179 12.2171 13.0753 12.0317C13.1896 11.8959 13.2201 11.7207 13.1553 11.5544C13.0918 11.3881 12.9522 11.2789 12.7757 11.2535C12.5345 11.2205 12.2907 11.1976 12.0432 11.1837C11.9949 11.1811 11.9467 11.1773 11.8984 11.1748C11.7524 11.1634 11.6217 11.2141 11.5201 11.3195C11.4871 11.3538 11.4528 11.3881 11.4198 11.4223L11.4223 11.4236ZM14.9467 12.2666C14.8223 12.4469 14.6902 12.6259 14.5531 12.7998C14.4604 12.9166 14.43 13.055 14.463 13.201C14.4973 13.3457 14.5849 13.4575 14.7194 13.5222C15.0089 13.6619 15.2869 13.8193 15.5523 13.9932C16.2937 14.4795 16.9386 15.0965 17.4579 15.8087C17.5544 15.9408 17.6978 16.0106 17.8616 16.0042C18.0254 15.9979 18.1625 15.9154 18.2476 15.7757C18.386 15.5472 18.5116 15.311 18.6246 15.0673C18.7021 14.901 18.6805 14.7182 18.5662 14.5734C18.193 14.0999 17.7715 13.6631 17.3094 13.2734C16.8244 12.8633 16.2937 12.5053 15.7275 12.2044C15.6691 12.1739 15.6094 12.1435 15.5497 12.113C15.3364 12.0063 15.0813 12.0724 14.9467 12.2679V12.2666ZM16.3292 10.6771C16.7063 10.8675 17.0694 11.0808 17.4173 11.3144C17.7994 11.5696 18.1638 11.8502 18.5078 12.1511C18.6538 12.278 18.8481 12.306 19.0233 12.2234C19.1972 12.1409 19.3013 11.9733 19.295 11.7804C19.2455 10.0766 18.6069 8.50614 17.5671 7.27973C17.4427 7.13246 17.2522 7.0766 17.0681 7.13246C16.8828 7.18832 16.7558 7.3394 16.733 7.53111C16.6784 7.98561 16.5959 8.43758 16.4829 8.88193C16.38 9.28819 16.2518 9.68938 16.1007 10.0829C16.0131 10.3115 16.1109 10.5667 16.3292 10.6771ZM14.6331 9.35167C14.854 8.74863 15.0076 8.1278 15.0939 7.4981C15.1765 6.89886 15.1981 6.29327 15.1587 5.69149C15.1473 5.50868 15.0406 5.3576 14.8718 5.28523C14.6267 5.18113 14.3754 5.08845 14.1164 5.011C13.9602 4.96403 13.8028 4.99577 13.6758 5.09987C13.5501 5.20398 13.4892 5.35252 13.5057 5.51502C13.5971 6.39103 13.5298 7.281 13.3051 8.13923C13.2239 8.44647 13.1236 8.7499 13.0017 9.04698C12.9458 9.18536 12.9535 9.32628 13.0258 9.45705C13.0982 9.58781 13.2137 9.67034 13.361 9.69573C13.5793 9.73381 13.7964 9.77825 14.0097 9.82903C14.2421 9.88362 14.4744 9.76174 14.562 9.54084C14.5861 9.47863 14.6102 9.41642 14.6331 9.35421V9.35167ZM11.1926 9.04825C11.8718 7.83834 12.0724 6.43419 11.7943 5.10876C11.7448 4.87008 11.5252 4.71011 11.284 4.73297C9.94583 4.86373 8.70673 5.3576 7.67203 6.12061C7.47651 6.26534 7.42065 6.53068 7.5438 6.74143C8.22429 7.91071 9.31358 8.82099 10.6263 9.26534C10.8447 9.33898 11.0796 9.24884 11.1926 9.04825ZM12.4875 3.14727C17.3754 3.41642 21.1206 7.59712 20.8515 12.485C20.5823 17.3728 16.4016 21.1181 11.5138 20.8489C6.6259 20.5798 2.88066 16.3991 3.14981 11.5112C3.41896 6.62336 7.59966 2.87812 12.4875 3.14727Z" fill="#FDA321"/>
<path d="M32.0598 7.30537V11.1923C32.0598 11.3947 32.2306 11.5593 32.4405 11.5593H34.9145C35.8053 11.5593 36.4991 11.3444 36.9972 10.9157C37.4953 10.4869 37.7432 9.93477 37.7432 9.26256C37.7432 8.5892 37.5203 8.0336 37.0755 7.59689C36.6307 7.15904 35.9535 6.94068 35.0462 6.94068H32.4405C32.2306 6.94068 32.0598 7.1053 32.0598 7.30765V7.30537ZM31.6791 20.6479H28.3807C28.1708 20.6479 28 20.4833 28 20.2809V3.72023C28 3.51788 28.1708 3.35326 28.3807 3.35326H35.6487C36.6094 3.35326 37.4693 3.49616 38.2283 3.78196C38.9874 4.06777 39.6338 4.46332 40.1663 4.96863C40.6988 5.47393 41.1092 6.07984 41.3974 6.78635C41.6856 7.49286 41.8291 8.26796 41.8291 9.10937C41.8291 9.78272 41.7152 10.4218 41.4887 11.0277C41.261 11.6336 40.9384 12.1801 40.5197 12.6682C40.101 13.1564 39.5851 13.5691 38.9743 13.9052C38.5319 14.1487 38.0516 14.3453 37.5357 14.4916C37.4064 14.5282 37.3127 14.6197 37.2771 14.7454C37.2403 14.8712 37.2712 14.9958 37.3625 15.0907L42.058 20.0317C42.1624 20.1414 42.1885 20.2912 42.1256 20.4272C42.0639 20.5633 41.9323 20.6467 41.7781 20.6467H37.525C37.4111 20.6467 37.3127 20.6033 37.238 20.5198L32.7287 15.5068C32.6231 15.3891 32.4595 15.3491 32.3088 15.4039C32.157 15.4588 32.061 15.5914 32.061 15.7469V20.2798C32.061 20.4821 31.8902 20.6467 31.6802 20.6467L31.6791 20.6479Z" fill="#FA7264"/>
<path fill-rule="evenodd" clip-rule="evenodd" d="M109.548 10.1451H101.928C101.718 10.1451 101.547 9.98051 101.547 9.77816V7.25508C101.547 7.05273 101.718 6.8881 101.928 6.8881H110.23C110.44 6.8881 110.611 6.72348 110.611 6.52113V3.72024C110.611 3.51789 110.44 3.35327 110.23 3.35327H97.869C97.6591 3.35327 97.4883 3.51789 97.4883 3.72024V20.2809C97.4883 20.4833 97.6591 20.6479 97.869 20.6479H110.256C110.466 20.6479 110.637 20.4833 110.637 20.2809V17.48C110.637 17.2777 110.466 17.1131 110.256 17.1131H101.928C101.718 17.1131 101.547 16.9484 101.547 16.7461V13.9452C101.547 13.7428 101.718 13.5782 101.928 13.5782H109.548C109.758 13.5782 109.929 13.4136 109.929 13.2113V10.511C109.929 10.3086 109.758 10.144 109.548 10.144V10.1451Z" fill="#9FD55C"/>
<path fill-rule="evenodd" clip-rule="evenodd" d="M95.0901 15.5606C95.5348 14.4585 95.7578 13.2593 95.7578 11.9628V11.3192C95.7578 11.1169 95.587 10.9522 95.3771 10.9522H86.84C86.6301 10.9522 86.4593 11.1169 86.4593 11.3192V13.9943C86.4593 14.1967 86.6301 14.3613 86.84 14.3613H90.6519C90.7871 14.3613 90.9034 14.4231 90.9745 14.5339C91.0457 14.6448 91.0528 14.7729 90.9923 14.8895C90.6448 15.5697 90.1586 16.1253 89.5371 16.5574C88.7602 17.0959 87.7687 17.3657 86.5637 17.3657C85.7785 17.3657 85.0527 17.2308 84.3897 16.9621C83.7267 16.6923 83.1539 16.3265 82.6747 15.8635C82.1944 15.4005 81.8196 14.8449 81.548 14.1967C81.2776 13.5485 81.1424 12.8466 81.1424 12.0886C81.1424 11.2803 81.2823 10.5441 81.561 9.8799C81.8409 9.21454 82.2288 8.64293 82.7269 8.16278C83.225 7.68263 83.8097 7.31223 84.4822 7.05157C85.1547 6.79092 85.8829 6.66059 86.6693 6.66059C87.6121 6.66059 88.459 6.86637 89.2097 7.27907C89.8632 7.63804 90.4645 8.12163 91.0125 8.72982C91.1489 8.88072 91.3873 8.89902 91.5462 8.76869L93.9704 6.78063C94.1246 6.65373 94.1495 6.43423 94.0262 6.27875C93.241 5.2853 92.2685 4.50448 91.1097 3.93401C89.8442 3.31096 88.3641 3 86.6704 3C85.2211 3 83.9034 3.2355 82.715 3.70651C81.5278 4.17752 80.5102 4.82115 79.6634 5.63741C78.8166 6.45367 78.1619 7.40826 77.6993 8.50232C77.2368 9.59638 77.0055 10.7579 77.0055 11.9869C77.0055 13.233 77.2415 14.4025 77.7124 15.4965C78.1844 16.5906 78.8474 17.5463 79.7025 18.3626C80.5576 19.1789 81.58 19.8225 82.7672 20.2935C83.9544 20.7645 85.2555 21 86.6693 21C88.0142 21 89.2453 20.7725 90.3625 20.3186C91.4798 19.8636 92.4357 19.2326 93.2304 18.4255C94.025 17.6172 94.6453 16.6626 95.0901 15.5594V15.5606Z" fill="#9FD55C"/>
<path fill-rule="evenodd" clip-rule="evenodd" d="M117.046 10.7533L123.461 20.4776C123.533 20.5862 123.648 20.6479 123.782 20.6479H127.619C127.829 20.6479 128 20.4833 128 20.2809V3.72024C128 3.51789 127.829 3.35327 127.619 3.35327H124.477C124.268 3.35327 124.097 3.51789 124.097 3.72024V13.0729C124.097 13.2387 123.988 13.3793 123.823 13.425C123.658 13.4708 123.487 13.409 123.396 13.2696L116.981 3.52361C116.908 3.41386 116.793 3.35327 116.659 3.35327H112.822C112.612 3.35327 112.442 3.51789 112.442 3.72024V20.2809C112.442 20.4833 112.612 20.6479 112.822 20.6479H115.964C116.174 20.6479 116.345 20.4833 116.345 20.2809V10.9511C116.345 10.7853 116.454 10.6447 116.619 10.599C116.784 10.5533 116.954 10.615 117.046 10.7545V10.7533Z" fill="#9FD55C"/>
<path fill-rule="evenodd" clip-rule="evenodd" d="M66.2292 3.59791L60.1592 20.1586C60.1165 20.2741 60.1331 20.3918 60.2066 20.4924C60.2801 20.593 60.3892 20.6479 60.5173 20.6479H63.8691C64.0363 20.6479 64.1774 20.5484 64.2308 20.3964L65.08 17.9202C65.1322 17.767 65.2745 17.6687 65.4417 17.6687H71.9376C72.1048 17.6687 72.246 17.767 72.2993 17.9202L73.1485 20.3964C73.2007 20.5496 73.343 20.6479 73.5103 20.6479H77.0719C77.1988 20.6479 77.3091 20.593 77.3827 20.4936C77.4562 20.393 77.4728 20.2752 77.4313 20.1597L71.3861 3.59906C71.3315 3.44929 71.1916 3.35441 71.0279 3.35441H66.5898C66.4261 3.35441 66.2862 3.44929 66.2316 3.59906L66.2292 3.59791ZM66.5115 13.7268L68.3155 8.49089C68.3677 8.33884 68.51 8.23939 68.676 8.23939C68.8433 8.23939 68.9844 8.3377 69.0366 8.49089L70.8405 13.7268C70.8808 13.8423 70.8619 13.9578 70.7883 14.0572C70.7148 14.1555 70.6057 14.2093 70.48 14.2093H66.8721C66.7464 14.2093 66.6372 14.1555 66.5637 14.0572C66.4902 13.9589 66.4712 13.8423 66.5115 13.7268Z" fill="#FDA321"/>
<path fill-rule="evenodd" clip-rule="evenodd" d="M51.2319 6.9384C51.9826 6.9384 52.6812 7.06529 53.3276 7.3168C53.974 7.56945 54.5326 7.91814 55.0034 8.36514C55.4743 8.81099 55.842 9.34144 56.1041 9.95535C56.3662 10.5693 56.4966 11.2392 56.4966 11.9628C56.4966 12.7037 56.3662 13.385 56.1041 14.0081C55.842 14.6311 55.4802 15.1696 55.0177 15.6234C54.5551 16.0773 54.0131 16.4317 53.394 16.6832C52.7737 16.9359 52.0977 17.0616 51.3647 17.0616H48.5502C48.3403 17.0616 48.1695 16.897 48.1695 16.6946V7.30423C48.1695 7.10188 48.3403 6.93725 48.5502 6.93725H51.2342L51.2319 6.9384ZM44.1074 3.72023V20.2809C44.1074 20.4833 44.2782 20.6479 44.4881 20.6479H51.2319C52.629 20.6479 53.8992 20.4204 55.0426 19.9665C56.1859 19.5115 57.1691 18.893 57.9887 18.1111C58.8094 17.328 59.4463 16.4031 59.9005 15.3342C60.3548 14.2653 60.5813 13.1255 60.5813 11.9137C60.5813 10.719 60.3631 9.59981 59.9266 8.55605C59.4902 7.51229 58.8746 6.60801 58.08 5.84205C57.2853 5.07609 56.3247 4.47018 55.1991 4.02433C54.0724 3.57847 52.82 3.35555 51.4406 3.35555H44.4869C44.277 3.35555 44.1062 3.52017 44.1062 3.72252L44.1074 3.72023Z" fill="#25BBD6"/>
</svg>
